<svg xmlns="http://www.w3.org/2000/svg" width="1200" height="700" viewBox="0 0 1200 700">
  <rect width="1200" height="700" fill="#f5f5f5"/>
  <rect x="55" y="45" width="1090" height="610" rx="18" fill="white" stroke="#c8c8c8"/>
  <text x="95" y="105" font-family="sans-serif" font-size="30" font-weight="bold" fill="#222">TuxInDrive safety and recovery</text>
  <rect x="95" y="145" width="1010" height="115" rx="12" fill="#eef6ff"/>
  <text x="125" y="185" font-family="sans-serif" font-size="22" font-weight="bold">Cloud files · Protected</text>
  <text x="125" y="220" font-family="sans-serif" font-size="17" fill="#555">Last audit: complete · Local versions: 18 · Ransomware protection: on</text>
  <g font-family="sans-serif" font-size="18" fill="#222">
    <rect x="125" y="278" width="140" height="48" rx="8" fill="#e7e7e7"/><text x="163" y="309">History</text>
    <rect x="280" y="278" width="140" height="48" rx="8" fill="#e7e7e7"/><text x="322" y="309">Verify</text>
    <rect x="435" y="278" width="150" height="48" rx="8" fill="#e7e7e7"/><text x="466" y="309">Conflicts</text>
  </g>
  <rect x="95" y="360" width="480" height="235" rx="12" fill="#fafafa" stroke="#ddd"/>
  <text x="125" y="405" font-family="sans-serif" font-size="23" font-weight="bold">Version history</text>
  <text x="125" y="450" font-family="sans-serif" font-size="17">report.odt · remote replacement</text>
  <text x="125" y="485" font-family="sans-serif" font-size="17">budget.xlsx · remote deletion</text>
  <rect x="385" y="525" width="155" height="45" rx="8" fill="#3584e4"/><text x="411" y="554" font-family="sans-serif" font-size="17" fill="white">Restore selected</text>
  <rect x="615" y="360" width="490" height="235" rx="12" fill="#fafafa" stroke="#ddd"/>
  <path d="M690 440v-28a55 55 0 01110 0v28" fill="none" stroke="#222" stroke-width="12"/>
  <rect x="670" y="438" width="150" height="105" rx="14" fill="#222"/>
  <text x="850" y="415" font-family="sans-serif" font-size="23" font-weight="bold">Encrypted vault</text>
  <text x="850" y="455" font-family="sans-serif" font-size="17">Content encryption</text>
  <text x="850" y="488" font-family="sans-serif" font-size="17">Encrypted names</text>
  <text x="850" y="521" font-family="sans-serif" font-size="17">Selective sync + streaming</text>
</svg>
